<?xml version="1.0" encoding="UTF-8" standalone="no"?>
<svg width="79px" height="79px" viewBox="0 0 79 79" version="1.1" xmlns="http://www.w3.org/2000/svg" xmlns:xlink="http://www.w3.org/1999/xlink">
    <!-- Generator: Sketch 3.8.3 (29802) - http://www.bohemiancoding.com/sketch -->
    <title>facebook-logo</title>
    <desc>Created with Sketch.</desc>
    <defs></defs>
    <g id="Home" stroke="none" stroke-width="1" fill="none" fill-rule="evenodd">
        <g id="Desktop-HD" transform="translate(-49.000000, -1856.000000)" fill="#FFFFFF">
            <g id="SocialBlock" transform="translate(-14.000000, 1752.000000)">
                <g id="facebook-logo" transform="translate(63.000000, 104.000000)">
                    <g id="Capa_1">
                        <g id="Group">
                            <path d="M39.5,0 C17.6838105,0 0,17.6838105 0,39.5 C0,61.3161895 17.6838105,79 39.5,79 C61.3161895,79 79,61.3161895 79,39.5 C79,17.6838105 61.3161895,0 39.5,0 L39.5,0 Z M39.5,72.828125 C21.0928457,72.828125 6.171875,57.9071543 6.171875,39.5 C6.171875,21.0928457 21.0928457,6.171875 39.5,6.171875 C57.9071543,6.171875 72.828125,21.0928457 72.828125,39.5 C72.828125,57.9071543 57.9071543,72.828125 39.5,72.828125 L39.5,72.828125 Z" id="Shape"></path>
                            <path d="M48.8735352,33.4534141 L42.002541,33.4534141 L42.002541,28.4387656 C42.002541,26.9005801 43.5936504,26.5438457 44.3362812,26.5438457 L48.7749395,26.5438457 L48.7749395,19.7765391 L43.6877715,19.75 C36.7470352,19.75 35.1628691,24.7959707 35.1628691,28.0314219 L35.1628691,33.4535684 L30.1264648,33.4535684 L30.1264648,40.4257812 L35.1628691,40.4257812 L35.1628691,59.25 L42.002541,59.25 L42.002541,40.4257812 L47.8127441,40.4257812 L48.8735352,33.4534141 L48.8735352,33.4534141 Z" id="Shape"></path>
                        </g>
                    </g>
                </g>
            </g>
        </g>
    </g>
</svg>