<?xml version="1.0" encoding="UTF-8" standalone="no"?>
<svg width="67px" height="56px" viewBox="0 0 67 56" version="1.1" xmlns="http://www.w3.org/2000/svg" xmlns:xlink="http://www.w3.org/1999/xlink">
    <!-- Generator: Sketch 3.8.3 (29802) - http://www.bohemiancoding.com/sketch -->
    <title>Logo</title>
    <desc>Created with Sketch.</desc>
    <defs></defs>
    <g id="Home" stroke="none" stroke-width="1" fill="none" fill-rule="evenodd">
        <g id="Desktop-HD" transform="translate(-55.000000, -37.000000)" fill="#FFFFFF">
            <g id="Logo" transform="translate(55.000000, 37.000000)">
                <rect id="Rectangle-1" x="3.57509881" y="11.7054632" width="7.41501976" height="7.44893112"></rect>
                <rect id="Rectangle-1-Copy-13" x="12.8438735" y="40.4370546" width="7.41501976" height="7.44893112"></rect>
                <rect id="Rectangle-1-Copy-5" x="12.8438735" y="21.1496437" width="7.41501976" height="7.44893112"></rect>
                <rect id="Rectangle-1-Copy-6" x="12.8438735" y="30.8598575" width="7.41501976" height="7.44893112"></rect>
                <rect id="Rectangle-1-Copy-9" x="3.57509881" y="21.1496437" width="7.41501976" height="7.44893112"></rect>
                <rect id="Rectangle-1-Copy" x="14.1679842" y="5.58669834" width="13.5059289" height="13.567696"></rect>
                <rect id="Rectangle-1-Copy-11" x="27.673913" y="42.432304" width="13.5059289" height="13.567696"></rect>
                <rect id="Rectangle-1-Copy-2" x="30.1897233" y="8.11401425" width="10.9901186" height="11.04038"></rect>
                <rect id="Rectangle-1-Copy-12" x="0" y="30.8598575" width="10.9901186" height="11.04038"></rect>
                <rect id="Rectangle-1-Copy-14" x="0" y="43.7624703" width="10.9901186" height="11.04038"></rect>
                <rect id="Rectangle-1-Copy-8" x="56.0098814" y="21.2826603" width="10.9901186" height="11.04038"></rect>
                <rect id="Rectangle-1-Copy-7" x="43.298419" y="21.2826603" width="10.9901186" height="11.04038"></rect>
                <rect id="Rectangle-1-Copy-3" x="43.298419" y="0" width="19.1996047" height="19.2874109"></rect>
                <rect id="Rectangle-1-Copy-10" x="43.298419" y="34.584323" width="19.1996047" height="19.2874109"></rect>
                <rect id="Rectangle-1-Copy-4" x="21.9802372" y="21.1496437" width="19.1996047" height="19.2874109"></rect>
            </g>
        </g>
    </g>
</svg>