<?xml version="1.0" encoding="UTF-8" standalone="no"?>
<svg width="68px" height="55px" viewBox="0 0 68 55" version="1.1" xmlns="http://www.w3.org/2000/svg" xmlns:xlink="http://www.w3.org/1999/xlink">
    <!-- Generator: Sketch 3.8.3 (29802) - http://www.bohemiancoding.com/sketch -->
    <title>twitter-logo</title>
    <desc>Created with Sketch.</desc>
    <defs></defs>
    <g id="Home" stroke="none" stroke-width="1" fill="none" fill-rule="evenodd">
        <g id="Desktop-HD" transform="translate(-56.000000, -2054.000000)" fill="#FFFFFF">
            <g id="SocialBlock" transform="translate(-14.000000, 1752.000000)">
                <g id="twitter-logo" transform="translate(70.000000, 302.000000)">
                    <g id="Capa_1">
                        <path d="M68,6.54455823 C65.4972222,7.64687751 62.8117778,8.39445783 59.9902222,8.72821285 C62.8712222,7.01338353 65.0765556,4.29342369 66.1217778,1.06233936 C63.4193333,2.65038153 60.4363333,3.80350402 57.2578889,4.42860442 C54.7126667,1.72973896 51.0923333,0.0487048193 47.0767778,0.0487048193 C39.373,0.0487048193 33.1266667,6.25740964 33.1266667,13.9105823 C33.1266667,14.996004 33.2498889,16.0561345 33.4878889,17.0698795 C21.8961111,16.4911647 11.6173333,10.9709538 4.73788889,2.58279116 C3.53533333,4.62706827 2.85122222,7.00907631 2.85122222,9.55177711 C2.85122222,14.36251 5.31577778,18.6072289 9.05511111,21.0906225 C6.769,21.0146386 4.61888889,20.3895382 2.73655556,19.350502 L2.73655556,19.5236747 C2.73655556,26.2391968 7.54666667,31.8438956 13.9246667,33.119498 C12.7561111,33.4320482 11.5238889,33.6052209 10.2491111,33.6052209 C9.34833333,33.6052209 8.47722222,33.5165361 7.62311111,33.3475602 C9.39922222,38.8593775 14.5493333,42.8675301 20.6512222,42.9774197 C15.8793333,46.6942269 9.86244444,48.9031727 3.32722222,48.9031727 C2.20122222,48.9031727 1.09211111,48.8355823 0.000111111111,48.7131024 C6.17422222,52.6537751 13.5041111,54.9514056 21.3821111,54.9514056 C47.043,54.9514056 61.0696667,33.8248896 61.0696667,15.5029317 L61.0228889,13.7079217 C63.7635556,11.7649197 66.1345556,9.32371486 68,6.54455823 L68,6.54455823 Z" id="Shape"></path>
                    </g>
                </g>
            </g>
        </g>
    </g>
</svg>